<?xml version="1.0" encoding="UTF-8"?><svg id="Ebene_1" xmlns="http://www.w3.org/2000/svg" viewBox="0 0 813.08 142.18"><defs><style>.cls-1{fill:#6c5fb1;}</style></defs><path class="cls-1" d="M98.35,44.49l43.32,3.9c6.28.93,8.91,8.45,4.58,13.15l-32.78,28.82,9.5,42.97c.78,6.25-5.52,10.79-11.2,8.01l-37.67-22.37-37.85,22.57c-5.64,2.39-11.59-2.17-10.82-8.21l9.5-42.97L1.99,61.39c-4.19-4.86-1.39-12.24,4.98-13.05l43.07-3.85L67.36,4.14c2.69-5.45,10.74-5.53,13.56-.19l17.43,40.53ZM74.48,11.12c-.76-.14-.45.12-.6.41-5.94,11.42-9.8,25.13-15.61,36.68-1.9,3.78-3.55,4.76-7.75,5.32l-39.65,3.49c1.86,1.85,3.84,3.64,5.81,5.38,7.87,6.96,17.42,14.16,24.7,21.49,2.24,2.25,3.2,4.2,2.83,7.48l-9.22,40.31,35.83-21.26c2.43-1.06,4.36-1.06,6.79,0l35.83,21.26-9.22-40.31c-.53-2.84.72-5.39,2.68-7.34l30.66-27.01-39.94-3.49c-4.02-.57-5.66-1.75-7.46-5.32-5.69-11.31-10.07-24.36-15.41-36.03-.15-.34-.24-.7-.23-1.07h0Z"/><path class="cls-1" d="M74.48,11.12c0,.37.08.73.23,1.07,5.34,11.67,9.71,24.72,15.41,36.03,1.8,3.57,3.44,4.75,7.46,5.32l39.94,3.49-30.66,27.01c-1.96,1.96-3.2,4.5-2.68,7.34l9.22,40.31-35.83-21.26c-2.42-1.06-4.36-1.06-6.79,0l-35.83,21.26,9.22-40.31c.38-3.29-.59-5.23-2.83-7.48-7.28-7.32-16.83-14.53-24.7-21.49-1.97-1.74-3.95-3.53-5.81-5.38l39.65-3.49c4.2-.56,5.85-1.55,7.75-5.32,5.81-11.55,9.68-25.26,15.61-36.68.15-.3-.15-.55.6-.41h0Z"/><path class="cls-1" d="M264.52,44.51l43.27,3.89c6.27.93,8.9,8.44,4.58,13.14l-32.75,28.79,9.49,42.93c.78,6.25-5.52,10.78-11.19,8l-37.63-22.35-37.82,22.54c-5.63,2.39-11.58-2.16-10.81-8.2l9.49-42.93-32.9-28.93c-4.18-4.85-1.39-12.23,4.97-13.04l43.03-3.85,17.31-40.3c2.69-5.44,10.73-5.53,13.55-.19l17.41,40.49ZM240.67,11.18c-.76-.14-.45.12-.6.41-5.93,11.41-9.79,25.11-15.6,36.65-1.9,3.77-3.55,4.76-7.74,5.32l-39.62,3.49c1.86,1.85,3.84,3.63,5.8,5.37,7.86,6.95,17.4,14.15,24.68,21.47,2.23,2.25,3.2,4.19,2.82,7.48l-9.21,40.27,35.79-21.24c2.43-1.06,4.36-1.06,6.78,0l35.79,21.24-9.21-40.27c-.53-2.84.72-5.38,2.68-7.34l30.63-26.98-39.91-3.49c-4.02-.57-5.66-1.75-7.46-5.32-5.69-11.3-10.06-24.33-15.39-35.99-.15-.34-.24-.7-.23-1.07h0Z"/><path class="cls-1" d="M430.72,44.51l43.27,3.89c6.27.93,8.9,8.44,4.58,13.14l-32.75,28.79,9.49,42.93c.78,6.25-5.52,10.78-11.19,8l-37.63-22.35-37.82,22.54c-5.63,2.39-11.58-2.16-10.81-8.2l9.49-42.93-32.9-28.93c-4.18-4.85-1.39-12.23,4.97-13.04l43.03-3.85,17.31-40.3c2.69-5.44,10.73-5.53,13.55-.19l17.41,40.49ZM406.87,11.18c-.76-.14-.45.12-.6.41-5.93,11.41-9.79,25.11-15.6,36.65-1.9,3.77-3.55,4.76-7.74,5.32l-39.62,3.49c1.86,1.85,3.84,3.63,5.8,5.37,7.86,6.95,17.4,14.15,24.68,21.47,2.23,2.25,3.2,4.19,2.82,7.48l-9.21,40.27,35.79-21.24c2.43-1.06,4.36-1.06,6.78,0l35.79,21.24-9.21-40.27c-.53-2.84.72-5.38,2.68-7.34l30.63-26.98-39.91-3.49c-4.02-.57-5.66-1.75-7.46-5.32-5.69-11.3-10.06-24.33-15.39-35.99-.15-.34-.24-.7-.23-1.07h0Z"/><path class="cls-1" d="M596.91,44.56l43.27,3.89c6.27.93,8.9,8.44,4.58,13.14l-32.75,28.79,9.49,42.93c.78,6.25-5.52,10.78-11.19,8l-37.63-22.35-37.82,22.54c-5.63,2.39-11.58-2.16-10.81-8.2l9.49-42.93-32.9-28.93c-4.18-4.85-1.39-12.23,4.97-13.04l43.03-3.85,17.31-40.3c2.69-5.44,10.73-5.53,13.55-.19l17.41,40.49ZM573.06,11.22c-.76-.14-.45.12-.6.41-5.93,11.41-9.79,25.11-15.6,36.65-1.9,3.77-3.55,4.76-7.74,5.32l-39.62,3.49c1.86,1.85,3.84,3.63,5.8,5.37,7.86,6.95,17.4,14.15,24.68,21.47,2.23,2.25,3.2,4.19,2.82,7.48l-9.21,40.27,35.79-21.24c2.43-1.06,4.36-1.06,6.78,0l35.79,21.24-9.21-40.27c-.53-2.84.72-5.38,2.68-7.34l30.63-26.98-39.91-3.49c-4.02-.57-5.66-1.75-7.46-5.32-5.69-11.3-10.06-24.33-15.39-35.99-.15-.34-.24-.7-.23-1.07h0Z"/><path class="cls-1" d="M763.1,44.56l43.27,3.89c6.27.93,8.9,8.44,4.58,13.14l-32.75,28.79,9.49,42.93c.78,6.25-5.52,10.78-11.19,8l-37.63-22.35-37.82,22.54c-5.63,2.39-11.58-2.16-10.81-8.2l9.49-42.93-32.9-28.93c-4.18-4.85-1.39-12.23,4.97-13.04l43.03-3.85,17.31-40.3c2.69-5.44,10.73-5.53,13.55-.19l17.41,40.49ZM739.25,11.22c-.76-.14-.45.12-.6.41-5.93,11.41-9.79,25.11-15.6,36.65-1.9,3.77-3.55,4.76-7.74,5.32l-39.62,3.49c1.86,1.85,3.84,3.63,5.8,5.37,7.86,6.95,17.4,14.15,24.68,21.47,2.23,2.25,3.2,4.19,2.82,7.48l-9.21,40.27,35.79-21.24c2.43-1.06,4.36-1.06,6.78,0l35.79,21.24-9.21-40.27c-.53-2.84.72-5.38,2.68-7.34l30.63-26.98-39.91-3.49c-4.02-.57-5.66-1.75-7.46-5.32-5.69-11.3-10.06-24.33-15.39-35.99-.15-.34-.24-.7-.23-1.07h0Z"/></svg>