<svg width="480" height="480" viewBox="0 0 480 480" fill="none" xmlns="http://www.w3.org/2000/svg">
<g clip-path="url(#clip0_224_1915)">
<rect width="480" height="480" rx="80" fill="white"/>
<rect width="480" height="480" fill="#232127"/>
<rect x="54" y="76" width="371" height="349" fill="white"/>
<path d="M35.25 80.58C35.25 61.59 40.53 48.5 60 48.5L384.5 57C403.97 57 444.75 54.01 444.75 73V401.82C444.75 420.81 430.97 434.5 411.5 434.5L65.5 445.62C46.03 445.62 35.25 420.81 35.25 401.82L35.25 80.58ZM148.29 401.82V185.07H76.26V401.82H148.29ZM112.29 155.46C137.4 155.46 153.03 138.84 153.03 118.02C152.58 96.75 137.43 80.58 112.77 80.58C88.11 80.58 72 96.78 72 118.02C72 138.84 87.63 155.46 111.81 155.46H112.29ZM259.53 401.82V280.77C259.53 274.29 260.01 267.81 261.93 263.19C267.12 250.26 278.97 236.85 298.89 236.85C324.96 236.85 335.37 256.71 335.37 285.87V401.82H407.4V277.5C407.4 210.9 371.88 179.94 324.48 179.94C286.26 179.94 269.13 200.94 259.53 215.73V216.48H259.05L259.53 215.73V185.07H187.53C188.43 205.41 187.53 401.82 187.53 401.82H259.53Z" fill="#232127"/>
</g>
<defs>
<clipPath id="clip0_224_1915">
<rect width="480" height="480" rx="80" fill="white"/>
</clipPath>
</defs>
</svg>
