<svg width="480" height="480" viewBox="0 0 480 480" fill="none" xmlns="http://www.w3.org/2000/svg">
<g clip-path="url(#clip0_222_243)">
<rect width="480" height="480" rx="80" fill="white"/>
<rect width="480" height="480" fill="#232127"/>
<g clip-path="url(#clip1_222_243)">
<path d="M239.5 63C191.602 63 185.579 63.2206 166.76 64.059C147.941 64.9415 135.122 67.8979 123.892 72.2662C112.108 76.6859 101.436 83.6372 92.6299 92.6299C83.6372 101.436 76.6859 112.108 72.2662 123.892C67.8979 135.1 64.9194 147.941 64.059 166.694C63.2206 185.557 63 191.558 63 239.522C63 287.442 63.2206 293.443 64.059 312.262C64.9415 331.059 67.8979 343.878 72.2662 355.107C76.7891 366.712 82.8121 376.552 92.6299 386.37C102.426 396.188 112.266 402.233 123.87 406.734C135.122 411.102 147.919 414.081 166.716 414.941C185.557 415.779 191.558 416 239.5 416C287.442 416 293.421 415.779 312.262 414.941C331.037 414.058 343.9 411.102 355.13 406.734C366.906 402.311 377.57 395.36 386.37 386.37C396.188 376.552 402.211 366.712 406.734 355.107C411.08 343.878 414.058 331.059 414.941 312.262C415.779 293.443 416 287.442 416 239.5C416 191.558 415.779 185.557 414.941 166.716C414.058 147.941 411.08 135.1 406.734 123.892C402.314 112.108 395.363 101.436 386.37 92.6299C377.564 83.6372 366.892 76.6859 355.107 72.2662C343.856 67.8979 331.015 64.9194 312.24 64.059C293.399 63.2206 287.42 63 239.456 63H239.5ZM223.681 94.8141H239.522C286.648 94.8141 292.229 94.9686 310.828 95.829C328.037 96.6012 337.391 99.4914 343.613 101.896C351.842 105.095 357.733 108.934 363.91 115.112C370.088 121.289 373.905 127.158 377.104 135.409C379.531 141.609 382.399 150.963 383.171 168.172C384.031 186.771 384.208 192.352 384.208 239.456C384.208 286.559 384.031 292.163 383.171 310.762C382.399 327.971 379.509 337.303 377.104 343.525C374.254 351.178 369.74 358.103 363.888 363.8C357.711 369.978 351.842 373.794 343.591 376.994C337.413 379.42 328.059 382.289 310.828 383.083C292.229 383.921 286.648 384.12 239.522 384.12C192.397 384.12 186.793 383.921 168.194 383.083C150.985 382.289 141.653 379.42 135.431 376.994C127.772 374.153 120.839 369.647 115.134 363.8C109.271 358.099 104.749 351.166 101.896 343.503C99.4914 337.303 96.6012 327.949 95.829 310.74C94.9906 292.141 94.8141 286.559 94.8141 239.412C94.8141 192.264 94.9906 186.726 95.829 168.128C96.6233 150.919 99.4914 141.565 101.918 135.343C105.117 127.114 108.956 121.223 115.134 115.045C121.311 108.868 127.18 105.051 135.431 101.852C141.653 99.4252 150.985 96.5571 168.194 95.7628C184.476 95.0127 190.786 94.7921 223.681 94.77V94.8141ZM333.729 124.113C330.948 124.113 328.193 124.661 325.624 125.725C323.054 126.79 320.719 128.35 318.752 130.317C316.786 132.283 315.226 134.618 314.161 137.188C313.097 139.758 312.549 142.512 312.549 145.293C312.549 148.075 313.097 150.829 314.161 153.398C315.226 155.968 316.786 158.303 318.752 160.27C320.719 162.236 323.054 163.796 325.624 164.861C328.193 165.925 330.948 166.473 333.729 166.473C339.346 166.473 344.733 164.242 348.705 160.27C352.677 156.298 354.909 150.91 354.909 145.293C354.909 139.676 352.677 134.289 348.705 130.317C344.733 126.345 339.346 124.113 333.729 124.113ZM239.522 148.867C227.5 148.68 215.56 150.886 204.398 155.357C193.236 159.828 183.075 166.475 174.507 174.91C165.939 183.346 159.134 193.402 154.49 204.493C149.845 215.583 147.453 227.487 147.453 239.511C147.453 251.535 149.845 263.439 154.49 274.53C159.134 285.62 165.939 295.676 174.507 304.112C183.075 312.547 193.236 319.194 204.398 323.665C215.56 328.136 227.5 330.342 239.522 330.155C263.317 329.784 286.012 320.07 302.709 303.112C319.405 286.153 328.763 263.309 328.763 239.511C328.763 215.713 319.405 192.869 302.709 175.91C286.012 158.952 263.317 149.238 239.522 148.867ZM239.522 180.659C247.249 180.659 254.901 182.181 262.039 185.138C269.178 188.095 275.665 192.429 281.129 197.893C286.593 203.357 290.927 209.844 293.884 216.983C296.841 224.122 298.363 231.773 298.363 239.5C298.363 247.227 296.841 254.878 293.884 262.017C290.927 269.156 286.593 275.643 281.129 281.107C275.665 286.571 269.178 290.905 262.039 293.862C254.901 296.819 247.249 298.341 239.522 298.341C223.917 298.341 208.95 292.141 197.915 281.107C186.881 270.072 180.681 255.106 180.681 239.5C180.681 223.894 186.881 208.928 197.915 197.893C208.95 186.859 223.917 180.659 239.522 180.659Z" fill="white"/>
</g>
</g>
<defs>
<clipPath id="clip0_222_243">
<rect width="480" height="480" rx="80" fill="white"/>
</clipPath>
<clipPath id="clip1_222_243">
<rect width="353" height="353" fill="white" transform="translate(63 63)"/>
</clipPath>
</defs>
</svg>
