<svg width="560" height="588" viewBox="0 0 560 588" fill="none" xmlns="http://www.w3.org/2000/svg">
<path d="M137.892 574.773C135.248 578.312 135.973 583.325 139.512 585.97C143.052 588.614 148.065 587.889 150.709 584.35L137.892 574.773ZM114.101 471.197L106.102 471.039L114.101 471.197ZM164.73 529.82L172.72 529.413L164.73 529.82ZM144.301 421.455C138.923 415.533 138.921 415.534 138.92 415.535C138.919 415.536 138.918 415.537 138.916 415.539C138.914 415.541 138.911 415.544 138.908 415.547C138.901 415.553 138.892 415.561 138.882 415.57C138.861 415.589 138.833 415.615 138.798 415.647C138.729 415.711 138.632 415.801 138.509 415.915C138.263 416.145 137.914 416.474 137.476 416.894C136.602 417.736 135.369 418.947 133.897 420.467C130.962 423.499 127.03 427.803 123.063 432.881C115.487 442.581 106.381 456.841 106.102 471.039L122.099 471.354C122.267 462.831 128.261 452.221 135.673 442.73C139.201 438.213 142.735 434.342 145.392 431.597C146.717 430.229 147.813 429.152 148.567 428.427C148.944 428.065 149.234 427.791 149.425 427.613C149.52 427.525 149.59 427.46 149.633 427.42C149.654 427.4 149.669 427.387 149.677 427.38C149.681 427.376 149.683 427.374 149.683 427.374C149.684 427.374 149.683 427.374 149.683 427.375C149.682 427.375 149.681 427.376 149.681 427.376C149.68 427.377 149.679 427.378 144.301 421.455ZM106.102 471.039C105.903 481.201 110.08 488.773 115.916 494.552C121.409 499.992 128.603 504.045 134.675 507.483C141.174 511.162 146.592 514.241 150.623 518.011C154.36 521.506 156.486 525.22 156.741 530.227L172.72 529.413C172.206 519.315 167.544 511.929 161.551 506.325C155.853 500.996 148.598 496.979 142.558 493.559C136.09 489.897 130.877 486.85 127.174 483.183C123.813 479.855 122.002 476.314 122.099 471.354L106.102 471.039ZM156.741 530.227C157.155 538.363 153.025 549.114 147.859 558.787C145.385 563.42 142.869 567.453 140.969 570.328C140.021 571.762 139.235 572.897 138.692 573.663C138.422 574.045 138.212 574.335 138.075 574.523C138.007 574.617 137.956 574.686 137.926 574.728C137.91 574.749 137.899 574.763 137.894 574.771C137.891 574.774 137.89 574.776 137.889 574.777C137.889 574.777 137.889 574.777 137.89 574.776C137.89 574.776 137.891 574.775 137.891 574.775C137.892 574.774 137.892 574.773 144.301 579.561C150.709 584.35 150.71 584.349 150.711 584.347C150.712 584.347 150.713 584.345 150.714 584.344C150.716 584.341 150.718 584.339 150.72 584.335C150.725 584.329 150.732 584.32 150.739 584.31C150.754 584.29 150.774 584.262 150.8 584.228C150.85 584.16 150.92 584.065 151.009 583.943C151.186 583.699 151.438 583.351 151.753 582.906C152.382 582.016 153.266 580.74 154.318 579.149C156.415 575.975 159.206 571.505 161.973 566.324C167.289 556.369 173.373 542.25 172.72 529.413L156.741 530.227Z" fill="#525252"/>
<path d="M271.268 217.131C271.268 292.04 210.543 433.098 135.634 433.098C60.7255 433.098 0 292.04 0 217.131C0 142.222 60.7255 81.4969 135.634 81.4969C210.543 81.4969 271.268 142.222 271.268 217.131Z" fill="#9C8DF4"/>
<path d="M55.004 144.981C77.4766 122.508 140.058 113.413 136.385 144.981C133.615 168.78 97.8105 156.594 81.1759 173.838C66.0615 189.507 76.0665 220.855 55.004 226.361C24.2564 234.399 32.5314 167.453 55.004 144.981Z" fill="white"/>
<path d="M428.953 493.276C426.308 496.815 427.033 501.828 430.573 504.473C434.112 507.118 439.125 506.392 441.77 502.853L428.953 493.276ZM405.161 389.7L397.163 389.543L405.161 389.7ZM455.791 448.323L463.781 447.916L455.791 448.323ZM435.361 339.958C429.983 334.036 429.982 334.037 429.98 334.039C429.98 334.039 429.978 334.04 429.977 334.042C429.975 334.044 429.972 334.047 429.968 334.05C429.961 334.056 429.953 334.064 429.942 334.073C429.922 334.092 429.894 334.118 429.859 334.15C429.789 334.214 429.692 334.304 429.569 334.418C429.324 334.648 428.975 334.977 428.537 335.397C427.662 336.239 426.43 337.45 424.958 338.971C422.023 342.002 418.09 346.306 414.124 351.384C406.548 361.084 397.442 375.344 397.163 389.543L413.16 389.857C413.327 381.334 419.321 370.724 426.734 361.233C430.261 356.716 433.795 352.845 436.453 350.1C437.777 348.732 438.873 347.655 439.627 346.93C440.004 346.568 440.295 346.294 440.485 346.116C440.58 346.028 440.65 345.963 440.693 345.923C440.715 345.904 440.73 345.89 440.737 345.883C440.741 345.879 440.743 345.877 440.744 345.877C440.744 345.877 440.744 345.877 440.743 345.878C440.743 345.878 440.742 345.879 440.742 345.879C440.741 345.88 440.74 345.881 435.361 339.958ZM397.163 389.543C396.963 399.704 401.14 407.276 406.977 413.055C412.47 418.495 419.664 422.548 425.735 425.986C432.234 429.665 437.652 432.744 441.684 436.514C445.421 440.009 447.546 443.723 447.801 448.73L463.781 447.916C463.267 437.818 458.605 430.432 452.612 424.828C446.913 419.499 439.659 415.482 433.618 412.062C427.15 408.4 421.938 405.353 418.234 401.686C414.874 398.358 413.062 394.818 413.16 389.857L397.163 389.543ZM447.801 448.73C448.215 456.866 444.085 467.617 438.92 477.29C436.446 481.923 433.929 485.956 432.029 488.831C431.082 490.265 430.295 491.4 429.753 492.166C429.482 492.548 429.273 492.838 429.136 493.026C429.067 493.12 429.017 493.189 428.986 493.231C428.971 493.252 428.96 493.266 428.954 493.274C428.952 493.277 428.95 493.28 428.95 493.28C428.95 493.28 428.95 493.28 428.95 493.279C428.951 493.279 428.951 493.278 428.951 493.278C428.952 493.277 428.953 493.276 435.361 498.064C441.77 502.853 441.771 502.852 441.772 502.85C441.772 502.85 441.774 502.848 441.774 502.847C441.776 502.845 441.778 502.842 441.781 502.838C441.786 502.832 441.792 502.823 441.8 502.813C441.815 502.793 441.835 502.766 441.86 502.731C441.91 502.663 441.981 502.568 442.069 502.446C442.247 502.202 442.498 501.854 442.813 501.409C443.442 500.52 444.327 499.243 445.378 497.652C447.476 494.478 450.267 490.008 453.033 484.827C458.349 474.873 464.434 460.753 463.781 447.916L447.801 448.73Z" fill="#525252"/>
<path d="M560 135.634C560 210.543 499.275 351.601 424.366 351.601C349.457 351.601 288.732 210.543 288.732 135.634C288.732 60.7255 349.457 0 424.366 0C499.275 0 560 60.7255 560 135.634Z" fill="#EDC43D"/>
<path d="M355.378 59.991C377.851 37.5184 440.432 28.423 436.759 59.991C433.989 83.7904 398.185 71.6044 381.55 88.8488C366.436 104.517 376.441 135.865 355.378 141.371C324.631 149.41 332.906 82.4636 355.378 59.991Z" fill="white"/>
</svg>
