<svg width="480" height="480" viewBox="0 0 480 480" fill="none" xmlns="http://www.w3.org/2000/svg">
<g clip-path="url(#clip0_230_2524)">
<rect width="480" height="480" fill="white"/>
<g clip-path="url(#clip1_230_2524)">
<path d="M14.565 0H0V43.6638H14.565V0Z" fill="#232127"/>
<path d="M14.565 43.6638H0V101.893H14.565V43.6638Z" fill="#232127"/>
<path d="M14.565 116.458H0V145.572H14.565V116.458Z" fill="#232127"/>
<path d="M14.565 160.122H0V174.687H14.565V160.122Z" fill="#232127"/>
<path d="M14.565 203.801H0V262.03H14.565V203.801Z" fill="#232127"/>
<path d="M14.565 305.693H0V320.243H14.565V305.693Z" fill="#232127"/>
<path d="M14.565 320.259H0V363.938H14.565V320.259Z" fill="#232127"/>
<path d="M14.565 378.487H0V451.266H14.565V378.487Z" fill="#232127"/>
<path d="M14.565 451.266H0V480.38H14.565V451.266Z" fill="#232127"/>
<path d="M29.1299 0H14.5649V14.565H29.1299V0Z" fill="#232127"/>
<path d="M29.1299 87.3431H14.5649V101.893H29.1299V87.3431Z" fill="#232127"/>
<path d="M29.1299 174.687H14.5649V189.252H29.1299V174.687Z" fill="#232127"/>
<path d="M29.1299 232.915H14.5649V247.465H29.1299V232.915Z" fill="#232127"/>
<path d="M29.1299 262.03H14.5649V320.258H29.1299V262.03Z" fill="#232127"/>
<path d="M29.1299 378.487H14.5649V393.052H29.1299V378.487Z" fill="#232127"/>
<path d="M29.1299 465.831H14.5649V480.38H29.1299V465.831Z" fill="#232127"/>
<path d="M43.6794 0H29.1144V14.565H43.6794V0Z" fill="#232127"/>
<path d="M43.6794 29.1144H29.1144V43.6638H43.6794V29.1144Z" fill="#232127"/>
<path d="M43.6794 43.6638H29.1144V72.7782H43.6794V43.6638Z" fill="#232127"/>
<path d="M43.6794 87.3431H29.1144V101.893H43.6794V87.3431Z" fill="#232127"/>
<path d="M43.6794 116.458H29.1144V145.572H43.6794V116.458Z" fill="#232127"/>
<path d="M43.6794 189.236H29.1144V203.801H43.6794V189.236Z" fill="#232127"/>
<path d="M43.6794 247.465H29.1144V262.03H43.6794V247.465Z" fill="#232127"/>
<path d="M43.6794 320.259H29.1144V334.824H43.6794V320.259Z" fill="#232127"/>
<path d="M43.6794 349.373H29.1144V363.938H43.6794V349.373Z" fill="#232127"/>
<path d="M43.6794 378.487H29.1144V393.052H43.6794V378.487Z" fill="#232127"/>
<path d="M43.6794 407.602H29.1144V451.266H43.6794V407.602Z" fill="#232127"/>
<path d="M43.6794 465.831H29.1144V480.38H43.6794V465.831Z" fill="#232127"/>
<path d="M58.2444 0H43.6794V14.565H58.2444V0Z" fill="#232127"/>
<path d="M58.2444 29.1144H43.6794V43.6638H58.2444V29.1144Z" fill="#232127"/>
<path d="M58.2444 43.6638H43.6794V72.7782H58.2444V43.6638Z" fill="#232127"/>
<path d="M58.2444 87.3431H43.6794V101.893H58.2444V87.3431Z" fill="#232127"/>
<path d="M58.2444 116.458H43.6794V145.572H58.2444V116.458Z" fill="#232127"/>
<path d="M58.2444 160.122H43.6794V174.687H58.2444V160.122Z" fill="#232127"/>
<path d="M58.2444 203.801H43.6794V232.915H58.2444V203.801Z" fill="#232127"/>
<path d="M58.2444 320.259H43.6794V334.824H58.2444V320.259Z" fill="#232127"/>
<path d="M58.2444 349.373H43.6794V363.938H58.2444V349.373Z" fill="#232127"/>
<path d="M58.2444 378.487H43.6794V393.052H58.2444V378.487Z" fill="#232127"/>
<path d="M58.2444 407.602H43.6794V451.266H58.2444V407.602Z" fill="#232127"/>
<path d="M58.2444 465.831H43.6794V480.38H58.2444V465.831Z" fill="#232127"/>
<path d="M72.7939 0H58.2289V14.565H72.7939V0Z" fill="#232127"/>
<path d="M72.7939 29.1144H58.2289V43.6638H72.7939V29.1144Z" fill="#232127"/>
<path d="M72.7939 43.6638H58.2289V72.7782H72.7939V43.6638Z" fill="#232127"/>
<path d="M72.7939 87.3431H58.2289V101.893H72.7939V87.3431Z" fill="#232127"/>
<path d="M72.7939 116.458H58.2289V131.007H72.7939V116.458Z" fill="#232127"/>
<path d="M72.7939 189.236H58.2289V218.35H72.7939V189.236Z" fill="#232127"/>
<path d="M72.7939 262.03H58.2289V276.595H72.7939V262.03Z" fill="#232127"/>
<path d="M72.7939 349.373H58.2289V363.938H72.7939V349.373Z" fill="#232127"/>
<path d="M72.7939 378.487H58.2289V393.052H72.7939V378.487Z" fill="#232127"/>
<path d="M72.7939 407.602H58.2289V451.266H72.7939V407.602Z" fill="#232127"/>
<path d="M72.7939 465.831H58.2289V480.38H72.7939V465.831Z" fill="#232127"/>
<path d="M87.3588 0H72.7938V14.565H87.3588V0Z" fill="#232127"/>
<path d="M87.3588 87.3431H72.7938V101.893H87.3588V87.3431Z" fill="#232127"/>
<path d="M87.3588 116.458H72.7938V131.007H87.3588V116.458Z" fill="#232127"/>
<path d="M87.3588 145.572H72.7938V160.137H87.3588V145.572Z" fill="#232127"/>
<path d="M87.3588 174.687H72.7938V247.465H87.3588V174.687Z" fill="#232127"/>
<path d="M87.3588 276.579H72.7938V291.144H87.3588V276.579Z" fill="#232127"/>
<path d="M87.3588 320.259H72.7938V334.824H87.3588V320.259Z" fill="#232127"/>
<path d="M87.3588 378.487H72.7938V393.052H87.3588V378.487Z" fill="#232127"/>
<path d="M87.3588 465.831H72.7938V480.38H87.3588V465.831Z" fill="#232127"/>
<path d="M101.893 0H87.3431V43.6638H101.893V0Z" fill="#232127"/>
<path d="M101.893 43.6638H87.3431V101.893H101.893V43.6638Z" fill="#232127"/>
<path d="M101.893 116.458H87.3431V131.007H101.893V116.458Z" fill="#232127"/>
<path d="M101.893 145.572H87.3431V160.137H101.893V145.572Z" fill="#232127"/>
<path d="M101.893 174.687H87.3431V189.252H101.893V174.687Z" fill="#232127"/>
<path d="M101.893 203.801H87.3431V218.366H101.893V203.801Z" fill="#232127"/>
<path d="M101.893 232.915H87.3431V247.465H101.893V232.915Z" fill="#232127"/>
<path d="M101.893 262.03H87.3431V276.595H101.893V262.03Z" fill="#232127"/>
<path d="M101.893 291.144H87.3431V305.709H101.893V291.144Z" fill="#232127"/>
<path d="M101.893 320.259H87.3431V334.824H101.893V320.259Z" fill="#232127"/>
<path d="M101.893 349.373H87.3431V363.938H101.893V349.373Z" fill="#232127"/>
<path d="M101.893 378.487H87.3431V451.266H101.893V378.487Z" fill="#232127"/>
<path d="M101.893 451.266H87.3431V480.38H101.893V451.266Z" fill="#232127"/>
<path d="M116.458 174.687H101.893V203.801H116.458V174.687Z" fill="#232127"/>
<path d="M116.458 291.144H101.893V320.259H116.458V291.144Z" fill="#232127"/>
<path d="M116.458 334.808H101.893V363.922H116.458V334.808Z" fill="#232127"/>
<path d="M131.023 29.1144H116.458V43.6638H131.023V29.1144Z" fill="#232127"/>
<path d="M131.023 43.6638H116.458V116.442H131.023V43.6638Z" fill="#232127"/>
<path d="M131.023 145.572H116.458V160.137H131.023V145.572Z" fill="#232127"/>
<path d="M131.023 203.801H116.458V218.366H131.023V203.801Z" fill="#232127"/>
<path d="M131.023 232.915H116.458V276.579H131.023V232.915Z" fill="#232127"/>
<path d="M131.023 291.144H116.458V320.259H131.023V291.144Z" fill="#232127"/>
<path d="M131.023 334.808H116.458V378.487H131.023V334.808Z" fill="#232127"/>
<path d="M131.023 393.037H116.458V451.266H131.023V393.037Z" fill="#232127"/>
<path d="M131.023 465.831H116.458V480.38H131.023V465.831Z" fill="#232127"/>
<path d="M145.572 0H131.007V29.1144H145.572V0Z" fill="#232127"/>
<path d="M145.572 58.2289H131.007V72.7783H145.572V58.2289Z" fill="#232127"/>
<path d="M145.572 116.458H131.007V131.007H145.572V116.458Z" fill="#232127"/>
<path d="M145.572 160.122H131.007V174.687H145.572V160.122Z" fill="#232127"/>
<path d="M145.572 189.236H131.007V276.579H145.572V189.236Z" fill="#232127"/>
<path d="M145.572 291.144H131.007V320.259H145.572V291.144Z" fill="#232127"/>
<path d="M145.572 320.259H131.007V334.824H145.572V320.259Z" fill="#232127"/>
<path d="M145.572 349.373H131.007V363.938H145.572V349.373Z" fill="#232127"/>
<path d="M145.572 407.602H131.007V451.266H145.572V407.602Z" fill="#232127"/>
<path d="M145.572 451.266H131.007V480.38H145.572V451.266Z" fill="#232127"/>
<path d="M160.137 43.6638H145.572V72.7782H160.137V43.6638Z" fill="#232127"/>
<path d="M160.137 87.3431H145.572V101.893H160.137V87.3431Z" fill="#232127"/>
<path d="M160.137 116.458H145.572V131.007H160.137V116.458Z" fill="#232127"/>
<path d="M160.137 160.122H145.572V232.915H160.137V160.122Z" fill="#232127"/>
<path d="M160.137 276.579H145.572V291.144H160.137V276.579Z" fill="#232127"/>
<path d="M160.137 305.693H145.572V320.243H160.137V305.693Z" fill="#232127"/>
<path d="M160.137 334.808H145.572V363.922H160.137V334.808Z" fill="#232127"/>
<path d="M160.137 378.487H145.572V393.052H160.137V378.487Z" fill="#232127"/>
<path d="M160.137 407.602H145.572V422.151H160.137V407.602Z" fill="#232127"/>
<path d="M160.137 451.266H145.572V465.831H160.137V451.266Z" fill="#232127"/>
<path d="M174.687 14.5649H160.122V43.6794H174.687V14.5649Z" fill="#232127"/>
<path d="M174.687 43.6638H160.122V72.7782H174.687V43.6638Z" fill="#232127"/>
<path d="M174.687 116.458H160.122V131.007H174.687V116.458Z" fill="#232127"/>
<path d="M174.687 145.572H160.122V218.366H174.687V145.572Z" fill="#232127"/>
<path d="M174.687 247.465H160.122V262.03H174.687V247.465Z" fill="#232127"/>
<path d="M174.687 305.693H160.122V320.243H174.687V305.693Z" fill="#232127"/>
<path d="M174.687 320.259H160.122V349.373H174.687V320.259Z" fill="#232127"/>
<path d="M174.687 363.922H160.122V378.487H174.687V363.922Z" fill="#232127"/>
<path d="M174.687 378.487H160.122V393.052H174.687V378.487Z" fill="#232127"/>
<path d="M174.687 422.151H160.122V451.266H174.687V422.151Z" fill="#232127"/>
<path d="M189.252 29.1144H174.687V43.6638H189.252V29.1144Z" fill="#232127"/>
<path d="M189.252 58.2289H174.687V72.7783H189.252V58.2289Z" fill="#232127"/>
<path d="M189.252 87.3431H174.687V116.458H189.252V87.3431Z" fill="#232127"/>
<path d="M189.252 131.007H174.687V145.557H189.252V131.007Z" fill="#232127"/>
<path d="M189.252 160.122H174.687V203.801H189.252V160.122Z" fill="#232127"/>
<path d="M189.252 218.35H174.687V247.465H189.252V218.35Z" fill="#232127"/>
<path d="M189.252 262.03H174.687V291.144H189.252V262.03Z" fill="#232127"/>
<path d="M189.252 305.693H174.687V320.243H189.252V305.693Z" fill="#232127"/>
<path d="M189.252 349.373H174.687V378.487H189.252V349.373Z" fill="#232127"/>
<path d="M189.252 422.151H174.687V436.716H189.252V422.151Z" fill="#232127"/>
<path d="M203.785 0H189.236V43.6638H203.785V0Z" fill="#232127"/>
<path d="M203.785 58.2289H189.236V87.3433H203.785V58.2289Z" fill="#232127"/>
<path d="M203.785 116.458H189.236V131.007H203.785V116.458Z" fill="#232127"/>
<path d="M203.785 247.465H189.236V305.694H203.785V247.465Z" fill="#232127"/>
<path d="M203.785 334.808H189.236V349.373H203.785V334.808Z" fill="#232127"/>
<path d="M203.785 363.922H189.236V378.487H203.785V363.922Z" fill="#232127"/>
<path d="M203.785 378.487H189.236V436.716H203.785V378.487Z" fill="#232127"/>
<path d="M203.785 465.831H189.236V480.38H203.785V465.831Z" fill="#232127"/>
<path d="M218.366 14.5649H203.801V29.1144H218.366V14.5649Z" fill="#232127"/>
<path d="M218.366 43.6638H203.801V58.2132H218.366V43.6638Z" fill="#232127"/>
<path d="M218.366 72.7782H203.801V131.007H218.366V72.7782Z" fill="#232127"/>
<path d="M218.366 160.122H203.801V174.687H218.366V160.122Z" fill="#232127"/>
<path d="M218.366 189.236H203.801V218.35H218.366V189.236Z" fill="#232127"/>
<path d="M218.366 232.915H203.801V262.03H218.366V232.915Z" fill="#232127"/>
<path d="M218.366 291.144H203.801V305.709H218.366V291.144Z" fill="#232127"/>
<path d="M218.366 320.259H203.801V363.938H218.366V320.259Z" fill="#232127"/>
<path d="M218.366 378.487H203.801V407.602H218.366V378.487Z" fill="#232127"/>
<path d="M218.366 422.151H203.801V451.266H218.366V422.151Z" fill="#232127"/>
<path d="M232.9 14.5649H218.35V43.6794H232.9V14.5649Z" fill="#232127"/>
<path d="M232.9 43.6638H218.35V87.3276H232.9V43.6638Z" fill="#232127"/>
<path d="M232.9 101.893H218.35V131.007H232.9V101.893Z" fill="#232127"/>
<path d="M232.9 145.572H218.35V160.137H232.9V145.572Z" fill="#232127"/>
<path d="M232.9 174.687H218.35V203.801H232.9V174.687Z" fill="#232127"/>
<path d="M232.9 262.03H218.35V276.595H232.9V262.03Z" fill="#232127"/>
<path d="M232.9 305.693H218.35V320.243H232.9V305.693Z" fill="#232127"/>
<path d="M232.9 320.259H218.35V363.938H232.9V320.259Z" fill="#232127"/>
<path d="M232.9 378.487H218.35V436.716H232.9V378.487Z" fill="#232127"/>
<path d="M247.48 14.5649H232.915V43.6794H247.48V14.5649Z" fill="#232127"/>
<path d="M247.48 43.6638H232.915V58.2132H247.48V43.6638Z" fill="#232127"/>
<path d="M247.48 72.7782H232.915V101.893H247.48V72.7782Z" fill="#232127"/>
<path d="M247.48 131.007H232.915V145.557H247.48V131.007Z" fill="#232127"/>
<path d="M247.48 189.236H232.915V203.801H247.48V189.236Z" fill="#232127"/>
<path d="M247.48 218.35H232.915V305.694H247.48V218.35Z" fill="#232127"/>
<path d="M247.48 320.259H232.915V334.824H247.48V320.259Z" fill="#232127"/>
<path d="M247.48 363.922H232.915V378.487H247.48V363.922Z" fill="#232127"/>
<path d="M247.48 393.037H232.915V407.586H247.48V393.037Z" fill="#232127"/>
<path d="M247.48 422.151H232.915V436.716H247.48V422.151Z" fill="#232127"/>
<path d="M247.48 451.266H232.915V480.38H247.48V451.266Z" fill="#232127"/>
<path d="M262.03 0H247.465V43.6638H262.03V0Z" fill="#232127"/>
<path d="M262.03 58.2289H247.465V87.3433H262.03V58.2289Z" fill="#232127"/>
<path d="M262.03 116.458H247.465V131.007H262.03V116.458Z" fill="#232127"/>
<path d="M262.03 189.236H247.465V203.801H262.03V189.236Z" fill="#232127"/>
<path d="M262.03 232.915H247.465V291.144H262.03V232.915Z" fill="#232127"/>
<path d="M262.03 305.693H247.465V320.243H262.03V305.693Z" fill="#232127"/>
<path d="M262.03 320.259H247.465V334.824H262.03V320.259Z" fill="#232127"/>
<path d="M262.03 349.373H247.465V363.938H262.03V349.373Z" fill="#232127"/>
<path d="M262.03 436.716H247.465V451.281H262.03V436.716Z" fill="#232127"/>
<path d="M262.03 465.831H247.465V480.38H262.03V465.831Z" fill="#232127"/>
<path d="M276.595 0H262.03V14.565H276.595V0Z" fill="#232127"/>
<path d="M276.595 29.1144H262.03V43.6638H276.595V29.1144Z" fill="#232127"/>
<path d="M276.595 58.2289H262.03V72.7783H276.595V58.2289Z" fill="#232127"/>
<path d="M276.595 87.3431H262.03V101.893H276.595V87.3431Z" fill="#232127"/>
<path d="M276.595 131.007H262.03V160.121H276.595V131.007Z" fill="#232127"/>
<path d="M276.595 174.687H262.03V189.252H276.595V174.687Z" fill="#232127"/>
<path d="M276.595 232.915H262.03V262.03H276.595V232.915Z" fill="#232127"/>
<path d="M276.595 276.579H262.03V291.144H276.595V276.579Z" fill="#232127"/>
<path d="M276.595 305.693H262.03V320.243H276.595V305.693Z" fill="#232127"/>
<path d="M276.595 378.487H262.03V393.052H276.595V378.487Z" fill="#232127"/>
<path d="M276.595 407.602H262.03V422.151H276.595V407.602Z" fill="#232127"/>
<path d="M276.595 436.716H262.03V451.281H276.595V436.716Z" fill="#232127"/>
<path d="M291.144 0H276.579V14.565H291.144V0Z" fill="#232127"/>
<path d="M291.144 29.1144H276.579V43.6638H291.144V29.1144Z" fill="#232127"/>
<path d="M291.144 131.007H276.579V145.557H291.144V131.007Z" fill="#232127"/>
<path d="M291.144 160.122H276.579V189.236H291.144V160.122Z" fill="#232127"/>
<path d="M291.144 203.801H276.579V262.03H291.144V203.801Z" fill="#232127"/>
<path d="M291.144 363.922H276.579V378.487H291.144V363.922Z" fill="#232127"/>
<path d="M291.144 407.602H276.579V422.151H291.144V407.602Z" fill="#232127"/>
<path d="M291.144 436.716H276.579V451.281H291.144V436.716Z" fill="#232127"/>
<path d="M291.144 451.266H276.579V480.38H291.144V451.266Z" fill="#232127"/>
<path d="M305.693 0H291.144V29.1144H305.693V0Z" fill="#232127"/>
<path d="M305.693 43.6638H291.144V58.2132H305.693V43.6638Z" fill="#232127"/>
<path d="M305.693 72.7782H291.144V101.893H305.693V72.7782Z" fill="#232127"/>
<path d="M305.693 131.007H291.144V145.557H305.693V131.007Z" fill="#232127"/>
<path d="M305.693 160.122H291.144V174.687H305.693V160.122Z" fill="#232127"/>
<path d="M305.693 189.236H291.144V203.801H305.693V189.236Z" fill="#232127"/>
<path d="M305.693 218.35H291.144V232.915H305.693V218.35Z" fill="#232127"/>
<path d="M305.693 262.03H291.144V305.709H305.693V262.03Z" fill="#232127"/>
<path d="M305.693 320.259H291.144V334.824H305.693V320.259Z" fill="#232127"/>
<path d="M305.693 363.922H291.144V378.487H305.693V363.922Z" fill="#232127"/>
<path d="M305.693 393.037H291.144V407.586H305.693V393.037Z" fill="#232127"/>
<path d="M305.693 422.151H291.144V436.716H305.693V422.151Z" fill="#232127"/>
<path d="M305.693 451.266H291.144V465.831H305.693V451.266Z" fill="#232127"/>
<path d="M320.243 14.5649H305.694V43.6794H320.243V14.5649Z" fill="#232127"/>
<path d="M320.243 58.2289H305.694V72.7783H320.243V58.2289Z" fill="#232127"/>
<path d="M320.243 101.893H305.694V116.458H320.243V101.893Z" fill="#232127"/>
<path d="M320.243 131.007H305.694V189.236H320.243V131.007Z" fill="#232127"/>
<path d="M320.243 218.35H305.694V232.915H320.243V218.35Z" fill="#232127"/>
<path d="M320.243 291.144H305.694V305.709H320.243V291.144Z" fill="#232127"/>
<path d="M320.243 334.808H305.694V349.373H320.243V334.808Z" fill="#232127"/>
<path d="M320.243 363.922H305.694V378.487H320.243V363.922Z" fill="#232127"/>
<path d="M320.243 378.487H305.694V436.716H320.243V378.487Z" fill="#232127"/>
<path d="M320.243 451.266H305.694V465.831H320.243V451.266Z" fill="#232127"/>
<path d="M334.824 14.5649H320.259V43.6794H334.824V14.5649Z" fill="#232127"/>
<path d="M334.824 58.2289H320.259V131.007H334.824V58.2289Z" fill="#232127"/>
<path d="M334.824 160.122H320.259V174.687H334.824V160.122Z" fill="#232127"/>
<path d="M334.824 203.801H320.259V247.465H334.824V203.801Z" fill="#232127"/>
<path d="M334.824 262.03H320.259V276.595H334.824V262.03Z" fill="#232127"/>
<path d="M334.824 291.144H320.259V305.709H334.824V291.144Z" fill="#232127"/>
<path d="M334.824 320.259H320.259V363.938H334.824V320.259Z" fill="#232127"/>
<path d="M334.824 393.037H320.259V407.586H334.824V393.037Z" fill="#232127"/>
<path d="M334.824 422.151H320.259V451.266H334.824V422.151Z" fill="#232127"/>
<path d="M334.824 451.266H320.259V480.38H334.824V451.266Z" fill="#232127"/>
<path d="M349.373 0H334.808V14.565H349.373V0Z" fill="#232127"/>
<path d="M349.373 29.1144H334.808V43.6638H349.373V29.1144Z" fill="#232127"/>
<path d="M349.373 43.6638H334.808V72.7782H349.373V43.6638Z" fill="#232127"/>
<path d="M349.373 116.458H334.808V145.572H349.373V116.458Z" fill="#232127"/>
<path d="M349.373 174.687H334.808V203.801H349.373V174.687Z" fill="#232127"/>
<path d="M349.373 232.915H334.808V262.03H349.373V232.915Z" fill="#232127"/>
<path d="M349.373 305.693H334.808V320.243H349.373V305.693Z" fill="#232127"/>
<path d="M349.373 378.487H334.808V407.602H349.373V378.487Z" fill="#232127"/>
<path d="M349.373 436.716H334.808V451.281H349.373V436.716Z" fill="#232127"/>
<path d="M349.373 451.266H334.808V480.38H349.373V451.266Z" fill="#232127"/>
<path d="M363.938 14.5649H349.373V29.1144H363.938V14.5649Z" fill="#232127"/>
<path d="M363.938 58.2289H349.373V72.7783H363.938V58.2289Z" fill="#232127"/>
<path d="M363.938 87.3431H349.373V145.572H363.938V87.3431Z" fill="#232127"/>
<path d="M363.938 160.122H349.373V189.236H363.938V160.122Z" fill="#232127"/>
<path d="M363.938 203.801H349.373V218.366H363.938V203.801Z" fill="#232127"/>
<path d="M363.938 276.579H349.373V305.694H363.938V276.579Z" fill="#232127"/>
<path d="M363.938 320.259H349.373V378.487H363.938V320.259Z" fill="#232127"/>
<path d="M363.938 378.487H349.373V436.716H363.938V378.487Z" fill="#232127"/>
<path d="M363.938 465.831H349.373V480.38H363.938V465.831Z" fill="#232127"/>
<path d="M378.487 145.572H363.922V160.137H378.487V145.572Z" fill="#232127"/>
<path d="M378.487 174.687H363.922V189.252H378.487V174.687Z" fill="#232127"/>
<path d="M378.487 203.801H363.922V291.144H378.487V203.801Z" fill="#232127"/>
<path d="M378.487 349.373H363.922V363.938H378.487V349.373Z" fill="#232127"/>
<path d="M378.487 407.602H363.922V436.716H378.487V407.602Z" fill="#232127"/>
<path d="M378.487 451.266H363.922V465.831H378.487V451.266Z" fill="#232127"/>
<path d="M393.037 0H378.487V43.6638H393.037V0Z" fill="#232127"/>
<path d="M393.037 43.6638H378.487V101.893H393.037V43.6638Z" fill="#232127"/>
<path d="M393.037 116.458H378.487V145.572H393.037V116.458Z" fill="#232127"/>
<path d="M393.037 189.236H378.487V232.915H393.037V189.236Z" fill="#232127"/>
<path d="M393.037 247.465H378.487V262.03H393.037V247.465Z" fill="#232127"/>
<path d="M393.037 305.693H378.487V320.243H393.037V305.693Z" fill="#232127"/>
<path d="M393.037 349.373H378.487V363.938H393.037V349.373Z" fill="#232127"/>
<path d="M393.037 378.487H378.487V393.052H393.037V378.487Z" fill="#232127"/>
<path d="M393.037 407.602H378.487V422.151H393.037V407.602Z" fill="#232127"/>
<path d="M393.037 436.716H378.487V451.281H393.037V436.716Z" fill="#232127"/>
<path d="M393.037 465.831H378.487V480.38H393.037V465.831Z" fill="#232127"/>
<path d="M407.586 0H393.037V14.565H407.586V0Z" fill="#232127"/>
<path d="M407.586 87.3431H393.037V101.893H407.586V87.3431Z" fill="#232127"/>
<path d="M407.586 116.458H393.037V145.572H407.586V116.458Z" fill="#232127"/>
<path d="M407.586 174.687H393.037V189.252H407.586V174.687Z" fill="#232127"/>
<path d="M407.586 232.915H393.037V291.144H407.586V232.915Z" fill="#232127"/>
<path d="M407.586 305.693H393.037V320.243H407.586V305.693Z" fill="#232127"/>
<path d="M407.586 320.259H393.037V334.824H407.586V320.259Z" fill="#232127"/>
<path d="M407.586 349.373H393.037V363.938H407.586V349.373Z" fill="#232127"/>
<path d="M407.586 407.602H393.037V422.151H407.586V407.602Z" fill="#232127"/>
<path d="M407.586 436.716H393.037V451.281H407.586V436.716Z" fill="#232127"/>
<path d="M407.586 465.831H393.037V480.38H407.586V465.831Z" fill="#232127"/>
<path d="M422.167 0H407.602V14.565H422.167V0Z" fill="#232127"/>
<path d="M422.167 29.1144H407.602V43.6638H422.167V29.1144Z" fill="#232127"/>
<path d="M422.167 43.6638H407.602V72.7782H422.167V43.6638Z" fill="#232127"/>
<path d="M422.167 87.3431H407.602V101.893H422.167V87.3431Z" fill="#232127"/>
<path d="M422.167 116.458H407.602V131.007H422.167V116.458Z" fill="#232127"/>
<path d="M422.167 145.572H407.602V189.251H422.167V145.572Z" fill="#232127"/>
<path d="M422.167 218.35H407.602V247.465H422.167V218.35Z" fill="#232127"/>
<path d="M422.167 262.03H407.602V305.709H422.167V262.03Z" fill="#232127"/>
<path d="M422.167 334.808H407.602V378.487H422.167V334.808Z" fill="#232127"/>
<path d="M422.167 378.487H407.602V436.716H422.167V378.487Z" fill="#232127"/>
<path d="M422.167 451.266H407.602V465.831H422.167V451.266Z" fill="#232127"/>
<path d="M436.716 0H422.151V14.565H436.716V0Z" fill="#232127"/>
<path d="M436.716 29.1144H422.151V43.6638H436.716V29.1144Z" fill="#232127"/>
<path d="M436.716 43.6638H422.151V72.7782H436.716V43.6638Z" fill="#232127"/>
<path d="M436.716 87.3431H422.151V101.893H436.716V87.3431Z" fill="#232127"/>
<path d="M436.716 116.458H422.151V145.572H436.716V116.458Z" fill="#232127"/>
<path d="M436.716 160.122H422.151V189.236H436.716V160.122Z" fill="#232127"/>
<path d="M436.716 203.801H422.151V218.366H436.716V203.801Z" fill="#232127"/>
<path d="M436.716 232.915H422.151V262.03H436.716V232.915Z" fill="#232127"/>
<path d="M436.716 276.579H422.151V320.243H436.716V276.579Z" fill="#232127"/>
<path d="M436.716 320.259H422.151V349.373H436.716V320.259Z" fill="#232127"/>
<path d="M436.716 393.037H422.151V422.151H436.716V393.037Z" fill="#232127"/>
<path d="M436.716 451.266H422.151V465.831H436.716V451.266Z" fill="#232127"/>
<path d="M451.281 0H436.716V14.565H451.281V0Z" fill="#232127"/>
<path d="M451.281 29.1144H436.716V43.6638H451.281V29.1144Z" fill="#232127"/>
<path d="M451.281 43.6638H436.716V72.7782H451.281V43.6638Z" fill="#232127"/>
<path d="M451.281 87.3431H436.716V101.893H451.281V87.3431Z" fill="#232127"/>
<path d="M451.281 116.458H436.716V174.686H451.281V116.458Z" fill="#232127"/>
<path d="M451.281 189.236H436.716V203.801H451.281V189.236Z" fill="#232127"/>
<path d="M451.281 218.35H436.716V232.915H451.281V218.35Z" fill="#232127"/>
<path d="M451.281 247.465H436.716V291.144H451.281V247.465Z" fill="#232127"/>
<path d="M451.281 334.808H436.716V349.373H451.281V334.808Z" fill="#232127"/>
<path d="M451.281 363.922H436.716V378.487H451.281V363.922Z" fill="#232127"/>
<path d="M451.281 378.487H436.716V407.602H451.281V378.487Z" fill="#232127"/>
<path d="M451.281 436.716H436.716V451.281H451.281V436.716Z" fill="#232127"/>
<path d="M451.281 451.266H436.716V465.831H451.281V451.266Z" fill="#232127"/>
<path d="M465.831 0H451.266V14.565H465.831V0Z" fill="#232127"/>
<path d="M465.831 87.3431H451.266V101.893H465.831V87.3431Z" fill="#232127"/>
<path d="M465.831 131.007H451.266V160.121H465.831V131.007Z" fill="#232127"/>
<path d="M465.831 189.236H451.266V218.35H465.831V189.236Z" fill="#232127"/>
<path d="M465.831 247.465H451.266V276.579H465.831V247.465Z" fill="#232127"/>
<path d="M465.831 320.259H451.266V334.824H465.831V320.259Z" fill="#232127"/>
<path d="M465.831 349.373H451.266V378.487H465.831V349.373Z" fill="#232127"/>
<path d="M465.831 378.487H451.266V407.602H465.831V378.487Z" fill="#232127"/>
<path d="M465.831 465.831H451.266V480.38H465.831V465.831Z" fill="#232127"/>
<path d="M480.396 0H465.831V43.6638H480.396V0Z" fill="#232127"/>
<path d="M480.396 43.6638H465.831V101.893H480.396V43.6638Z" fill="#232127"/>
<path d="M480.396 131.007H465.831V145.557H480.396V131.007Z" fill="#232127"/>
<path d="M480.396 189.236H465.831V203.801H480.396V189.236Z" fill="#232127"/>
<path d="M480.396 232.915H465.831V262.03H480.396V232.915Z" fill="#232127"/>
<path d="M480.396 305.693H465.831V320.243H480.396V305.693Z" fill="#232127"/>
<path d="M480.396 334.808H465.831V378.487H480.396V334.808Z" fill="#232127"/>
<path d="M480.396 422.151H465.831V436.716H480.396V422.151Z" fill="#232127"/>
</g>
</g>
<defs>
<clipPath id="clip0_230_2524">
<rect width="480" height="480" fill="white"/>
</clipPath>
<clipPath id="clip1_230_2524">
<rect width="480.38" height="480.38" fill="white"/>
</clipPath>
</defs>
</svg>
