<svg width="480" height="480" viewBox="0 0 480 480" fill="none" xmlns="http://www.w3.org/2000/svg">
<g clip-path="url(#clip0_230_2193)">
<rect width="480" height="480" fill="white"/>
<path d="M16.5529 -0.419922H0V32.686H16.5529V-0.419922Z" fill="#232127"/>
<path d="M16.5529 32.6741H0V65.78H16.5529V32.6741Z" fill="#232127"/>
<path d="M16.5529 65.7799H0V115.439H16.5529V65.7799Z" fill="#232127"/>
<path d="M16.5529 131.992H0V231.298H16.5529V131.992Z" fill="#232127"/>
<path d="M16.5529 247.85H0V280.956H16.5529V247.85Z" fill="#232127"/>
<path d="M16.5529 297.509H0V314.062H16.5529V297.509Z" fill="#232127"/>
<path d="M16.5529 363.709H0V479.568H16.5529V363.709Z" fill="#232127"/>
<path d="M33.1058 -0.419922H16.5529V16.133H33.1058V-0.419922Z" fill="#232127"/>
<path d="M33.1058 98.886H16.5529V115.439H33.1058V98.886Z" fill="#232127"/>
<path d="M33.1058 198.192H16.5529V264.404H33.1058V198.192Z" fill="#232127"/>
<path d="M33.1058 330.604H16.5529V347.157H33.1058V330.604Z" fill="#232127"/>
<path d="M33.1058 363.709H16.5529V380.262H33.1058V363.709Z" fill="#232127"/>
<path d="M33.1058 463.015H16.5529V479.568H33.1058V463.015Z" fill="#232127"/>
<path d="M49.6588 -0.419922H33.1058V16.133H49.6588V-0.419922Z" fill="#232127"/>
<path d="M49.6588 32.6741H33.1058V65.78H49.6588V32.6741Z" fill="#232127"/>
<path d="M49.6588 65.7799H33.1058V82.3328H49.6588V65.7799Z" fill="#232127"/>
<path d="M49.6588 98.886H33.1058V115.439H49.6588V98.886Z" fill="#232127"/>
<path d="M49.6588 131.992H33.1058V198.204H49.6588V131.992Z" fill="#232127"/>
<path d="M49.6588 214.745H33.1058V347.156H49.6588V214.745Z" fill="#232127"/>
<path d="M49.6588 363.709H33.1058V380.262H49.6588V363.709Z" fill="#232127"/>
<path d="M49.6588 396.815H33.1058V446.474H49.6588V396.815Z" fill="#232127"/>
<path d="M49.6588 463.015H33.1058V479.568H49.6588V463.015Z" fill="#232127"/>
<path d="M66.2117 -0.419922H49.6588V16.133H66.2117V-0.419922Z" fill="#232127"/>
<path d="M66.2117 32.6741H49.6588V65.78H66.2117V32.6741Z" fill="#232127"/>
<path d="M66.2117 65.7799H49.6588V82.3328H66.2117V65.7799Z" fill="#232127"/>
<path d="M66.2117 98.886H49.6588V115.439H66.2117V98.886Z" fill="#232127"/>
<path d="M66.2117 131.992H49.6588V148.545H66.2117V131.992Z" fill="#232127"/>
<path d="M66.2117 165.086H49.6588V181.639H66.2117V165.086Z" fill="#232127"/>
<path d="M66.2117 214.745H49.6588V231.298H66.2117V214.745Z" fill="#232127"/>
<path d="M66.2117 264.404H49.6588V280.956H66.2117V264.404Z" fill="#232127"/>
<path d="M66.2117 363.709H49.6588V380.262H66.2117V363.709Z" fill="#232127"/>
<path d="M66.2117 396.815H49.6588V446.474H66.2117V396.815Z" fill="#232127"/>
<path d="M66.2117 463.015H49.6588V479.568H66.2117V463.015Z" fill="#232127"/>
<path d="M82.7648 -0.419922H66.2118V16.133H82.7648V-0.419922Z" fill="#232127"/>
<path d="M82.7648 32.6741H66.2118V65.78H82.7648V32.6741Z" fill="#232127"/>
<path d="M82.7648 65.7799H66.2118V82.3328H82.7648V65.7799Z" fill="#232127"/>
<path d="M82.7648 98.886H66.2118V115.439H82.7648V98.886Z" fill="#232127"/>
<path d="M82.7648 148.545H66.2118V165.098H82.7648V148.545Z" fill="#232127"/>
<path d="M82.7648 181.639H66.2118V198.192H82.7648V181.639Z" fill="#232127"/>
<path d="M82.7648 214.745H66.2118V231.298H82.7648V214.745Z" fill="#232127"/>
<path d="M82.7648 247.85H66.2118V264.403H82.7648V247.85Z" fill="#232127"/>
<path d="M82.7648 280.957H66.2118V330.615H82.7648V280.957Z" fill="#232127"/>
<path d="M82.7648 363.709H66.2118V380.262H82.7648V363.709Z" fill="#232127"/>
<path d="M82.7648 396.815H66.2118V446.474H82.7648V396.815Z" fill="#232127"/>
<path d="M82.7648 463.015H66.2118V479.568H82.7648V463.015Z" fill="#232127"/>
<path d="M99.3059 -0.419922H82.7529V16.133H99.3059V-0.419922Z" fill="#232127"/>
<path d="M99.3059 98.886H82.7529V115.439H99.3059V98.886Z" fill="#232127"/>
<path d="M99.3059 131.992H82.7529V165.098H99.3059V131.992Z" fill="#232127"/>
<path d="M99.3059 214.745H82.7529V231.298H99.3059V214.745Z" fill="#232127"/>
<path d="M99.3059 247.85H82.7529V264.403H99.3059V247.85Z" fill="#232127"/>
<path d="M99.3059 280.957H82.7529V314.062H99.3059V280.957Z" fill="#232127"/>
<path d="M99.3059 363.709H82.7529V380.262H99.3059V363.709Z" fill="#232127"/>
<path d="M99.3059 463.015H82.7529V479.568H99.3059V463.015Z" fill="#232127"/>
<path d="M115.859 -0.419922H99.3059V32.686H115.859V-0.419922Z" fill="#232127"/>
<path d="M115.859 32.6741H99.3059V65.78H115.859V32.6741Z" fill="#232127"/>
<path d="M115.859 65.7799H99.3059V115.439H115.859V65.7799Z" fill="#232127"/>
<path d="M115.859 131.992H99.3059V148.545H115.859V131.992Z" fill="#232127"/>
<path d="M115.859 165.086H99.3059V181.639H115.859V165.086Z" fill="#232127"/>
<path d="M115.859 198.192H99.3059V214.745H115.859V198.192Z" fill="#232127"/>
<path d="M115.859 231.298H99.3059V247.851H115.859V231.298Z" fill="#232127"/>
<path d="M115.859 264.404H99.3059V280.956H115.859V264.404Z" fill="#232127"/>
<path d="M115.859 297.509H99.3059V314.062H115.859V297.509Z" fill="#232127"/>
<path d="M115.859 330.604H99.3059V347.157H115.859V330.604Z" fill="#232127"/>
<path d="M115.859 363.709H99.3059V479.568H115.859V363.709Z" fill="#232127"/>
<path d="M132.412 131.992H115.859V198.204H132.412V131.992Z" fill="#232127"/>
<path d="M132.412 231.298H115.859V247.851H132.412V231.298Z" fill="#232127"/>
<path d="M132.412 280.957H115.859V314.062H132.412V280.957Z" fill="#232127"/>
<path d="M132.412 330.604H115.859V347.157H132.412V330.604Z" fill="#232127"/>
<path d="M148.965 -0.419922H132.412V32.686H148.965V-0.419922Z" fill="#232127"/>
<path d="M148.965 49.2272H132.412V65.7801H148.965V49.2272Z" fill="#232127"/>
<path d="M148.965 98.886H132.412V131.992H148.965V98.886Z" fill="#232127"/>
<path d="M148.965 181.639H132.412V231.298H148.965V181.639Z" fill="#232127"/>
<path d="M148.965 264.404H132.412V280.956H148.965V264.404Z" fill="#232127"/>
<path d="M148.965 330.604H132.412V396.815H148.965V330.604Z" fill="#232127"/>
<path d="M148.965 413.368H132.412V446.474H148.965V413.368Z" fill="#232127"/>
<path d="M148.965 463.015H132.412V479.568H148.965V463.015Z" fill="#232127"/>
<path d="M165.518 -0.419922H148.965V32.686H165.518V-0.419922Z" fill="#232127"/>
<path d="M165.518 32.6741H148.965V65.78H165.518V32.6741Z" fill="#232127"/>
<path d="M165.518 65.7799H148.965V82.3328H165.518V65.7799Z" fill="#232127"/>
<path d="M165.518 115.439H148.965V131.992H165.518V115.439Z" fill="#232127"/>
<path d="M165.518 148.545H148.965V165.098H165.518V148.545Z" fill="#232127"/>
<path d="M165.518 198.192H148.965V214.745H165.518V198.192Z" fill="#232127"/>
<path d="M165.518 231.298H148.965V247.851H165.518V231.298Z" fill="#232127"/>
<path d="M165.518 297.509H148.965V314.062H165.518V297.509Z" fill="#232127"/>
<path d="M165.518 330.604H148.965V363.71H165.518V330.604Z" fill="#232127"/>
<path d="M165.518 429.921H148.965V446.474H165.518V429.921Z" fill="#232127"/>
<path d="M165.518 463.015H148.965V479.568H165.518V463.015Z" fill="#232127"/>
<path d="M182.071 32.6741H165.518V49.227H182.071V32.6741Z" fill="#232127"/>
<path d="M182.071 65.7799H165.518V115.439H182.071V65.7799Z" fill="#232127"/>
<path d="M182.071 198.192H165.518V214.745H182.071V198.192Z" fill="#232127"/>
<path d="M182.071 231.298H165.518V297.498H182.071V231.298Z" fill="#232127"/>
<path d="M182.071 330.604H165.518V347.157H182.071V330.604Z" fill="#232127"/>
<path d="M182.071 396.815H165.518V429.921H182.071V396.815Z" fill="#232127"/>
<path d="M182.071 463.015H165.518V479.568H182.071V463.015Z" fill="#232127"/>
<path d="M198.623 -0.419922H182.071V16.133H198.623V-0.419922Z" fill="#232127"/>
<path d="M198.623 49.2272H182.071V65.7801H198.623V49.2272Z" fill="#232127"/>
<path d="M198.623 65.7799H182.071V82.3328H198.623V65.7799Z" fill="#232127"/>
<path d="M198.623 148.545H182.071V165.098H198.623V148.545Z" fill="#232127"/>
<path d="M198.623 181.639H182.071V231.298H198.623V181.639Z" fill="#232127"/>
<path d="M198.623 280.957H182.071V297.509H198.623V280.957Z" fill="#232127"/>
<path d="M198.623 330.604H182.071V347.157H198.623V330.604Z" fill="#232127"/>
<path d="M198.623 363.709H182.071V380.262H198.623V363.709Z" fill="#232127"/>
<path d="M198.623 413.368H182.071V479.568H198.623V413.368Z" fill="#232127"/>
<path d="M215.176 -0.419922H198.624V32.686H215.176V-0.419922Z" fill="#232127"/>
<path d="M215.176 82.333H198.624V115.439H215.176V82.333Z" fill="#232127"/>
<path d="M215.176 148.545H198.624V198.204H215.176V148.545Z" fill="#232127"/>
<path d="M215.176 247.85H198.624V264.403H215.176V247.85Z" fill="#232127"/>
<path d="M215.176 280.957H198.624V297.509H215.176V280.957Z" fill="#232127"/>
<path d="M215.176 314.051H198.624V347.156H215.176V314.051Z" fill="#232127"/>
<path d="M215.176 363.709H198.624V396.815H215.176V363.709Z" fill="#232127"/>
<path d="M215.176 413.368H198.624V429.921H215.176V413.368Z" fill="#232127"/>
<path d="M231.73 -0.419922H215.177V32.686H231.73V-0.419922Z" fill="#232127"/>
<path d="M231.73 82.333H215.177V98.8859H231.73V82.333Z" fill="#232127"/>
<path d="M231.73 131.992H215.177V181.651H231.73V131.992Z" fill="#232127"/>
<path d="M231.73 231.298H215.177V247.851H231.73V231.298Z" fill="#232127"/>
<path d="M231.73 297.509H215.177V347.168H231.73V297.509Z" fill="#232127"/>
<path d="M231.73 380.262H215.177V396.815H231.73V380.262Z" fill="#232127"/>
<path d="M231.73 413.368H215.177V429.921H231.73V413.368Z" fill="#232127"/>
<path d="M231.73 446.474H215.177V463.027H231.73V446.474Z" fill="#232127"/>
<path d="M248.271 -0.419922H231.718V16.133H248.271V-0.419922Z" fill="#232127"/>
<path d="M248.271 49.2272H231.718V65.7801H248.271V49.2272Z" fill="#232127"/>
<path d="M248.271 65.7799H231.718V82.3328H248.271V65.7799Z" fill="#232127"/>
<path d="M248.271 98.886H231.718V115.439H248.271V98.886Z" fill="#232127"/>
<path d="M248.271 148.545H231.718V165.098H248.271V148.545Z" fill="#232127"/>
<path d="M248.271 198.192H231.718V231.298H248.271V198.192Z" fill="#232127"/>
<path d="M248.271 247.85H231.718V347.156H248.271V247.85Z" fill="#232127"/>
<path d="M248.271 363.709H231.718V396.815H248.271V363.709Z" fill="#232127"/>
<path d="M248.271 429.921H231.718V446.474H248.271V429.921Z" fill="#232127"/>
<path d="M264.824 -0.419922H248.271V16.133H264.824V-0.419922Z" fill="#232127"/>
<path d="M264.824 49.2272H248.271V65.7801H264.824V49.2272Z" fill="#232127"/>
<path d="M264.824 82.333H248.271V98.8859H264.824V82.333Z" fill="#232127"/>
<path d="M264.824 115.439H248.271V165.098H264.824V115.439Z" fill="#232127"/>
<path d="M264.824 198.192H248.271V214.745H264.824V198.192Z" fill="#232127"/>
<path d="M264.824 231.298H248.271V247.851H264.824V231.298Z" fill="#232127"/>
<path d="M264.824 264.404H248.271V280.956H264.824V264.404Z" fill="#232127"/>
<path d="M264.824 297.509H248.271V347.168H264.824V297.509Z" fill="#232127"/>
<path d="M264.824 396.815H248.271V429.921H264.824V396.815Z" fill="#232127"/>
<path d="M281.376 16.1213H264.823V32.6743H281.376V16.1213Z" fill="#232127"/>
<path d="M281.376 32.6741H264.823V49.227H281.376V32.6741Z" fill="#232127"/>
<path d="M281.376 65.7799H264.823V131.992H281.376V65.7799Z" fill="#232127"/>
<path d="M281.376 165.086H264.823V198.192H281.376V165.086Z" fill="#232127"/>
<path d="M281.376 214.745H264.823V264.403H281.376V214.745Z" fill="#232127"/>
<path d="M281.376 280.957H264.823V347.168H281.376V280.957Z" fill="#232127"/>
<path d="M281.376 363.709H264.823V380.262H281.376V363.709Z" fill="#232127"/>
<path d="M281.376 413.368H264.823V446.474H281.376V413.368Z" fill="#232127"/>
<path d="M281.376 463.015H264.823V479.568H281.376V463.015Z" fill="#232127"/>
<path d="M297.929 16.1213H281.376V32.6743H297.929V16.1213Z" fill="#232127"/>
<path d="M297.929 49.2272H281.376V65.7801H297.929V49.2272Z" fill="#232127"/>
<path d="M297.929 65.7799H281.376V82.3328H297.929V65.7799Z" fill="#232127"/>
<path d="M297.929 115.439H281.376V148.545H297.929V115.439Z" fill="#232127"/>
<path d="M297.929 165.086H281.376V181.639H297.929V165.086Z" fill="#232127"/>
<path d="M297.929 198.192H281.376V214.745H297.929V198.192Z" fill="#232127"/>
<path d="M297.929 297.509H281.376V347.168H297.929V297.509Z" fill="#232127"/>
<path d="M297.929 363.709H281.376V380.262H297.929V363.709Z" fill="#232127"/>
<path d="M297.929 396.815H281.376V413.368H297.929V396.815Z" fill="#232127"/>
<path d="M297.929 429.921H281.376V446.474H297.929V429.921Z" fill="#232127"/>
<path d="M314.482 -0.419922H297.929V16.133H314.482V-0.419922Z" fill="#232127"/>
<path d="M314.482 32.6741H297.929V49.227H314.482V32.6741Z" fill="#232127"/>
<path d="M314.482 65.7799H297.929V82.3328H314.482V65.7799Z" fill="#232127"/>
<path d="M314.482 98.886H297.929V115.439H314.482V98.886Z" fill="#232127"/>
<path d="M314.482 131.992H297.929V148.545H314.482V131.992Z" fill="#232127"/>
<path d="M314.482 198.192H297.929V214.745H314.482V198.192Z" fill="#232127"/>
<path d="M314.482 231.298H297.929V247.851H314.482V231.298Z" fill="#232127"/>
<path d="M314.482 264.404H297.929V347.157H314.482V264.404Z" fill="#232127"/>
<path d="M314.482 363.709H297.929V380.262H314.482V363.709Z" fill="#232127"/>
<path d="M314.482 429.921H297.929V446.474H314.482V429.921Z" fill="#232127"/>
<path d="M314.482 463.015H297.929V479.568H314.482V463.015Z" fill="#232127"/>
<path d="M331.035 -0.419922H314.482V16.133H331.035V-0.419922Z" fill="#232127"/>
<path d="M331.035 49.2272H314.482V65.7801H331.035V49.2272Z" fill="#232127"/>
<path d="M331.035 65.7799H314.482V98.8858H331.035V65.7799Z" fill="#232127"/>
<path d="M331.035 148.545H314.482V165.098H331.035V148.545Z" fill="#232127"/>
<path d="M331.035 198.192H314.482V264.404H331.035V198.192Z" fill="#232127"/>
<path d="M331.035 314.051H314.482V330.603H331.035V314.051Z" fill="#232127"/>
<path d="M331.035 363.709H314.482V396.815H331.035V363.709Z" fill="#232127"/>
<path d="M331.035 413.368H314.482V429.921H331.035V413.368Z" fill="#232127"/>
<path d="M331.035 463.015H314.482V479.568H331.035V463.015Z" fill="#232127"/>
<path d="M347.588 -0.419922H331.035V16.133H347.588V-0.419922Z" fill="#232127"/>
<path d="M347.588 32.6741H331.035V49.227H347.588V32.6741Z" fill="#232127"/>
<path d="M347.588 65.7799H331.035V115.439H347.588V65.7799Z" fill="#232127"/>
<path d="M347.588 148.545H331.035V165.098H347.588V148.545Z" fill="#232127"/>
<path d="M347.588 181.639H331.035V198.192H347.588V181.639Z" fill="#232127"/>
<path d="M347.588 231.298H331.035V247.851H347.588V231.298Z" fill="#232127"/>
<path d="M347.588 264.404H331.035V297.509H347.588V264.404Z" fill="#232127"/>
<path d="M347.588 330.604H331.035V429.91H347.588V330.604Z" fill="#232127"/>
<path d="M347.588 446.474H331.035V479.58H347.588V446.474Z" fill="#232127"/>
<path d="M364.141 148.545H347.588V165.098H364.141V148.545Z" fill="#232127"/>
<path d="M364.141 181.639H347.588V198.192H364.141V181.639Z" fill="#232127"/>
<path d="M364.141 214.745H347.588V231.298H364.141V214.745Z" fill="#232127"/>
<path d="M364.141 247.85H347.588V314.062H364.141V247.85Z" fill="#232127"/>
<path d="M364.141 330.604H347.588V347.157H364.141V330.604Z" fill="#232127"/>
<path d="M364.141 396.815H347.588V429.921H364.141V396.815Z" fill="#232127"/>
<path d="M380.694 -0.419922H364.141V32.686H380.694V-0.419922Z" fill="#232127"/>
<path d="M380.694 32.6741H364.141V65.78H380.694V32.6741Z" fill="#232127"/>
<path d="M380.694 65.7799H364.141V115.439H380.694V65.7799Z" fill="#232127"/>
<path d="M380.694 131.992H364.141V165.098H380.694V131.992Z" fill="#232127"/>
<path d="M380.694 181.639H364.141V198.192H380.694V181.639Z" fill="#232127"/>
<path d="M380.694 214.745H364.141V247.85H380.694V214.745Z" fill="#232127"/>
<path d="M380.694 330.604H364.141V347.157H380.694V330.604Z" fill="#232127"/>
<path d="M380.694 363.709H364.141V380.262H380.694V363.709Z" fill="#232127"/>
<path d="M380.694 396.815H364.141V413.368H380.694V396.815Z" fill="#232127"/>
<path d="M380.694 446.474H364.141V463.027H380.694V446.474Z" fill="#232127"/>
<path d="M397.235 -0.419922H380.682V16.133H397.235V-0.419922Z" fill="#232127"/>
<path d="M397.235 98.886H380.682V115.439H397.235V98.886Z" fill="#232127"/>
<path d="M397.235 148.545H380.682V198.204H397.235V148.545Z" fill="#232127"/>
<path d="M397.235 214.745H380.682V264.403H397.235V214.745Z" fill="#232127"/>
<path d="M397.235 280.957H380.682V314.062H397.235V280.957Z" fill="#232127"/>
<path d="M397.235 330.604H380.682V347.157H397.235V330.604Z" fill="#232127"/>
<path d="M397.235 396.815H380.682V413.368H397.235V396.815Z" fill="#232127"/>
<path d="M397.235 429.921H380.682V463.027H397.235V429.921Z" fill="#232127"/>
<path d="M413.788 -0.419922H397.235V16.133H413.788V-0.419922Z" fill="#232127"/>
<path d="M413.788 32.6741H397.235V65.78H413.788V32.6741Z" fill="#232127"/>
<path d="M413.788 65.7799H397.235V82.3328H413.788V65.7799Z" fill="#232127"/>
<path d="M413.788 98.886H397.235V115.439H413.788V98.886Z" fill="#232127"/>
<path d="M413.788 148.545H397.235V198.204H413.788V148.545Z" fill="#232127"/>
<path d="M413.788 231.298H397.235V280.957H413.788V231.298Z" fill="#232127"/>
<path d="M413.788 330.604H397.235V429.91H413.788V330.604Z" fill="#232127"/>
<path d="M430.341 -0.419922H413.788V16.133H430.341V-0.419922Z" fill="#232127"/>
<path d="M430.341 32.6741H413.788V65.78H430.341V32.6741Z" fill="#232127"/>
<path d="M430.341 65.7799H413.788V82.3328H430.341V65.7799Z" fill="#232127"/>
<path d="M430.341 98.886H413.788V115.439H430.341V98.886Z" fill="#232127"/>
<path d="M430.341 131.992H413.788V148.545H430.341V131.992Z" fill="#232127"/>
<path d="M430.341 198.192H413.788V214.745H430.341V198.192Z" fill="#232127"/>
<path d="M430.341 264.404H413.788V297.509H430.341V264.404Z" fill="#232127"/>
<path d="M430.341 330.604H413.788V396.815H430.341V330.604Z" fill="#232127"/>
<path d="M430.341 413.368H413.788V429.921H430.341V413.368Z" fill="#232127"/>
<path d="M430.341 446.474H413.788V479.58H430.341V446.474Z" fill="#232127"/>
<path d="M446.894 -0.419922H430.341V16.133H446.894V-0.419922Z" fill="#232127"/>
<path d="M446.894 32.6741H430.341V65.78H446.894V32.6741Z" fill="#232127"/>
<path d="M446.894 65.7799H430.341V82.3328H446.894V65.7799Z" fill="#232127"/>
<path d="M446.894 98.886H430.341V115.439H446.894V98.886Z" fill="#232127"/>
<path d="M446.894 165.086H430.341V181.639H446.894V165.086Z" fill="#232127"/>
<path d="M446.894 198.192H430.341V247.851H446.894V198.192Z" fill="#232127"/>
<path d="M446.894 280.957H430.341V363.709H446.894V280.957Z" fill="#232127"/>
<path d="M446.894 396.815H430.341V413.368H446.894V396.815Z" fill="#232127"/>
<path d="M446.894 429.921H430.341V446.474H446.894V429.921Z" fill="#232127"/>
<path d="M463.447 -0.419922H446.894V16.133H463.447V-0.419922Z" fill="#232127"/>
<path d="M463.447 98.886H446.894V115.439H463.447V98.886Z" fill="#232127"/>
<path d="M463.447 131.992H446.894V148.545H463.447V131.992Z" fill="#232127"/>
<path d="M463.447 165.086H446.894V181.639H463.447V165.086Z" fill="#232127"/>
<path d="M463.447 214.745H446.894V297.498H463.447V214.745Z" fill="#232127"/>
<path d="M463.447 347.157H446.894V380.263H463.447V347.157Z" fill="#232127"/>
<path d="M463.447 396.815H446.894V413.368H463.447V396.815Z" fill="#232127"/>
<path d="M463.447 446.474H446.894V479.58H463.447V446.474Z" fill="#232127"/>
<path d="M480 -0.419922H463.447V32.686H480V-0.419922Z" fill="#232127"/>
<path d="M480 32.6741H463.447V65.78H480V32.6741Z" fill="#232127"/>
<path d="M480 65.7799H463.447V115.439H480V65.7799Z" fill="#232127"/>
<path d="M480 131.992H463.447V165.098H480V131.992Z" fill="#232127"/>
<path d="M480 181.639H463.447V198.192H480V181.639Z" fill="#232127"/>
<path d="M480 214.745H463.447V247.85H480V214.745Z" fill="#232127"/>
<path d="M480 347.157H463.447V363.71H480V347.157Z" fill="#232127"/>
<path d="M480 380.262H463.447V396.815H480V380.262Z" fill="#232127"/>
<path d="M480 413.368H463.447V446.474H480V413.368Z" fill="#232127"/>
</g>
<defs>
<clipPath id="clip0_230_2193">
<rect width="480" height="480" fill="white"/>
</clipPath>
</defs>
</svg>
